<svg xmlns="http://www.w3.org/2000/svg" xmlns:xlink="http://www.w3.org/1999/xlink" width="500" height="500" viewBox="0 0 500 500">
  <defs>
    <clipPath id="clip-logo-square-white">
      <rect width="500" height="500"/>
    </clipPath>
  </defs>
  <g id="logo-square-white" clip-path="url(#clip-logo-square-white)">
    <g id="Group_1" data-name="Group 1" transform="translate(-49.728 -50)">
      <path id="Path_8" d="M299.728,50c-47.409.023-93.308,12.926-133.333,38.333C130.817,59.555,88.061,31.7,88.061,66.667V168.333c-18.664,30.27-32.149,64.726-36.667,100,11.188-7.942,29.145-19.826,48.333-31.667a490.571,490.571,0,0,1,53.333-28.333c17.784-8.078,34.569-15,51.667-15,31.771,0,53.2,21.575,65,40A146.186,146.186,0,0,1,286.394,270a19,19,0,0,1-36.667,10,101.239,101.239,0,0,0-11.667-26.667c-8.211-12.825-18.229-21.667-33.333-21.667-6.34,0-21.145,2.95-36.667,10s-32.415,16.844-48.333,26.667c-17.5,10.8-34.3,22.442-45,30,9.687-1.962,20.869-4.71,33.333-5,23.167-.54,51.443,4.784,78.333,18.333,17.735,8.936,34.558,21.284,50,35,2.681-6.375,5.16-13.383,10-20a21.159,21.159,0,0,1,16.667-8.333c7.053.117,13.571,3.662,16.667,10a19.592,19.592,0,0,1-1.667,20c-12.794,17.491-11.706,25.41-10,30,.1.258-.1-.24,0,0,2.513,2.806,5.976,5.582,8.333,8.333.652.656,1.119,2.588,1.667,3.333,8.619,10.167,15.553,18.495,21.667,26.667,5.747-7.55,12.125-15.713,20-25,1.333-2.562,4.335-4.963,6.667-6.667,1.4-1.609,1.883-3.372,3.333-5,.344-.647,1.361-.845,1.667-1.667,1.706-4.59,2.794-12.509-10-30-4.183-5.553-4.623-12.041-1.667-18.333s9.722-11.342,16.667-11.667a20.054,20.054,0,0,1,16.667,8.333c4.9,6.7,7.31,13.546,10,20,15.36-13.816,32.16-26.011,50-35,26.89-13.549,55.166-18.873,78.333-18.333,12.463.29,23.647,3.038,33.333,5-10.7-7.558-27.5-19.2-45-30-15.918-9.823-32.811-19.616-48.333-26.667s-28.66-10-35-10c-15.1,0-26.789,8.842-35,21.667A101.348,101.348,0,0,0,349.728,280c-2.653,10.011-11.657,15.989-21.667,13.333A19.184,19.184,0,0,1,314.728,270a111.793,111.793,0,0,1,15-36.667c11.8-18.425,34.9-40,66.667-40,17.1,0,33.883,6.922,51.667,15s34.9,17.985,51.667,28.333c19.2,11.849,37.146,23.724,48.333,31.667a250.908,250.908,0,0,0-35-100V66.667c0-35.027-44.389-7.164-80,21.667C393.1,62.907,347.09,50.1,299.728,50Zm-185,281.667c-32.271-.3-56.667,10-56.667,10a34.443,34.443,0,0,1-5,1.667A251.339,251.339,0,0,0,204.728,531.667c14.094-12.575,28.418-28.159,40-41.667,14.728-17.176,25.36-31.17,31.667-40-19.567-26.4-65.412-84.213-106.667-105A125.863,125.863,0,0,0,114.728,331.667Zm370,0c-16.9.157-34.679,3.934-53.333,13.333-8.983,4.526-19.04,9.344-28.333,16.667,3.465-.137,6.377-.087,10,0a155.007,155.007,0,0,1,65,16.667A227.993,227.993,0,0,1,524.728,410a250.047,250.047,0,0,0,21.667-66.667,31.277,31.277,0,0,1-5-1.667S517,331.367,484.728,331.667ZM408.061,400a144.247,144.247,0,0,0-55,11.667h0c-.745.857-.938.816-1.667,1.667-20.026,23.4-33.912,42.589-36.667,46.667,6.421-.613,12.93-.17,20,0,20,.48,42.674,3.837,65,15,15.188,7.594,29.833,18.527,43.333,30a247.72,247.72,0,0,0,61.667-61.667c-14.294-12.993-29.468-24.734-43.333-31.667C442.985,402.462,424.469,399.811,408.061,400Zm-76.667,96.667c-23.353-.038-42.875,6.553-51.667,10-2.188,2.643-4.323,5.6-6.667,8.333-8.02,9.354-17.131,18.721-26.667,28.333,17.524,3.94,35.372,6.562,53.333,6.667a252.965,252.965,0,0,0,108.333-25c-8.418-6.448-16.958-10.979-25-15C365.28,501.109,347.373,496.693,331.394,496.667Z" transform="translate(0 0)" fill="#fff"/>
    </g>
  </g>
</svg>
